# xmcd CD database file
#
# Track frame offsets:
#	150
#	13988
#	32838
#	50583
#	68483
#	82335
#	93718
#	110300
#	125258
#	135003
#	145755
#	163903
#	176373
#	185955
#	214590
#	227715
#	235713
#	248948
#	263925
#	274338
#	289448
#
# Disc length: 3952 seconds
#
# Revision: 2
# Processed by: cddbd v1.4PL0 Copyright (c) Steve Scherf et al.
# Submitted via: CDex 1.50
#
DISCID=3b0f6e15
DTITLE=Flying Burrito Brothers - Farther Along: the Best of the Flying Burrito Brothers
DYEAR=1988
DGENRE=Country
TTITLE0=Christine's Tune (Devil In Disguise)
TTITLE1=Sin City
TTITLE2=Do Right Woman
TTITLE3=Dark End of the Street
TTITLE4=Wheels
TTITLE5=Juanita
TTITLE6=Hot Burrito #1
TTITLE7=Hot Burrito #2
TTITLE8=Do You Know How It Feels
TTITLE9=Break My Mind
TTITLE10=Farther Along
TTITLE11=Cody Cody
TTITLE12=God's Own Singer
TTITLE13=Wild Horses
TTITLE14=Dim Lights
TTITLE15=Just Because
TTITLE16=Six Days On the Road
TTITLE17=To Love Somebody
TTITLE18=Close Up the Honkytonks
TTITLE19=Sing Me Back Home
TTITLE20=I Shall Be Released
EXTD=YEAR: 1988
EXTT0=
EXTT1=
EXTT2=
EXTT3=
EXTT4=
EXTT5=
EXTT6=
EXTT7=
EXTT8=
EXTT9=
EXTT10=
EXTT11=
EXTT12=
EXTT13=
EXTT14=
EXTT15=
EXTT16=
EXTT17=
EXTT18=
EXTT19=
EXTT20=
PLAYORDER=
